<svg width="55" height="55" viewBox="0 0 55 55" fill="none" xmlns="http://www.w3.org/2000/svg">
<path fill-rule="evenodd" clip-rule="evenodd" d="M0 16C0 7.16345 7.16344 0 16 0H39C47.8366 0 55 7.16344 55 16V39C55 47.8366 47.8366 55 39 55H16C7.16345 55 0 47.8366 0 39V16ZM44 14C44 15.6569 42.6569 17 41 17C39.3431 17 38 15.6569 38 14C38 12.3431 39.3431 11 41 11C42.6569 11 44 12.3431 44 14ZM27 40C33.6274 40 39 34.4036 39 27.5C39 20.5964 33.6274 15 27 15C20.3726 15 15 20.5964 15 27.5C15 34.4036 20.3726 40 27 40Z" fill="black"/>
</svg>
