<svg width="64" height="53" viewBox="0 0 64 53" fill="none" xmlns="http://www.w3.org/2000/svg">
<path d="M22 52.9248C10.532 53.6908 0 46.4224 0 46.4224C0 46.4224 9 46.4224 12 45.4224C15 44.4224 18.5 41.4224 18.5 41.4224L11 37.9224L6.30369 32.4248H11V30.9224C11 30.9224 6.69414 29.541 5 27.4224C3.10688 25.055 3 19.9224 3 19.9224L8.5 20.9224C0.5 12.9224 2 6.92478 5.5 3.92478C5.5 3.92478 7 6.92012 14.5 11.9224C22 16.9248 31 16.9248 31 16.9248C31 16.9248 29 10.9273 35 3.92488C41 -3.07756 49.5 1.42478 49.5 1.42478L54 5.42244L61.5 1.42478L58.5 8.42478L63.5 6.92478C63.5 6.92478 62 10.9248 58.5 13.9248C55 16.9248 57 17.9224 56.5 22.4224C56 26.9224 52.7105 37.3164 45.5 43.9248C38.2551 50.5646 33.468 52.1588 22 52.9248Z" fill="black"/>
</svg>
